<svg width="56" height="56" viewBox="0 0 56 56" fill="none" xmlns="http://www.w3.org/2000/svg">
<path d="M54.4012 23.7029C53.9998 23.3015 53.5533 22.9767 53.0752 22.7242C52.7595 22.5032 52.4258 22.3047 52.065 22.1334C44.249 18.4441 37.9122 12.1074 34.2185 4.28686C33.9253 3.66898 33.5465 3.11424 33.1045 2.63166C32.8835 2.26634 32.6128 1.91905 32.2971 1.60334C30.1594 -0.534447 26.6866 -0.534447 24.5488 1.60334L2.45832 23.6939C0.320533 25.8316 0.320533 29.3044 2.45832 31.4422C2.6252 31.6091 2.79659 31.7579 2.977 31.8977C3.54978 32.5201 4.2533 33.0523 5.06512 33.4402C12.8811 37.1295 19.2179 43.4707 22.9116 51.2867C23.2273 51.9542 23.6377 52.5405 24.1203 53.0501C24.2556 53.2215 24.4 53.3884 24.5578 53.5462C26.6956 55.684 30.1684 55.684 32.3062 53.5462L54.3967 31.4557C56.5345 29.3179 56.5345 25.8452 54.3967 23.7074L54.4012 23.7029ZM25.771 47.0021L29.2528 43.5203C29.9835 44.756 30.6645 46.0279 31.2824 47.3358C31.9363 48.7204 32.004 50.2674 31.4628 51.4806C31.0794 52.342 30.43 52.9464 29.6362 53.1854C28.1795 53.6229 26.5738 53.1042 25.4418 51.9497C24.3188 50.4703 24.4315 48.3506 25.7755 47.0021H25.771ZM32.8248 46.6052C32.1213 45.1169 31.3455 43.6736 30.4976 42.271L43.0538 29.7148C44.4519 30.5627 45.8997 31.3385 47.388 32.042C48.4614 32.5517 49.5979 32.7862 50.6894 32.7501L33.533 49.9066C33.569 48.8151 33.3345 47.6786 32.8248 46.6052ZM4.13155 30.6259C3.17541 29.5164 2.77401 28.0596 3.1709 26.7246C3.40543 25.9309 4.00979 25.2814 4.87122 24.898C6.08444 24.3568 7.63589 24.4245 9.02049 25.0784C10.1706 25.6196 11.2936 26.215 12.394 26.8464L9.00249 30.238C7.67652 31.564 5.60185 31.6948 4.13155 30.6304V30.6259ZM9.75113 23.5315C8.41614 22.9001 6.99549 22.6881 5.66952 22.9001L23.6783 4.89123C23.4709 6.21269 23.6783 7.63787 24.3098 8.96835C24.9367 10.2988 25.6267 11.5977 26.3709 12.8606L13.6388 25.5926C12.376 24.8484 11.0771 24.1584 9.74661 23.5315H9.75113ZM31.093 8.143L27.6247 11.6113C26.9933 10.5153 26.4025 9.38779 25.8568 8.23772C25.2028 6.85312 25.1351 5.30614 25.6763 4.08842C26.0597 3.22698 26.7091 2.62262 27.5074 2.3881C28.9506 1.95513 30.5427 2.46028 31.6747 3.59231C31.6928 3.61035 31.7109 3.62839 31.7244 3.64643C32.5182 5.08065 32.3062 6.92526 31.093 8.13848V8.143ZM27.2909 14.3579C29.1807 17.3075 31.3771 20.0407 33.8441 22.5077C36.1894 24.853 38.7827 26.9592 41.5699 28.7858L29.564 40.7917C25.8207 35.0728 20.8956 30.1974 15.1362 26.5127L27.2909 14.3579ZM52.1913 24.1945C53.7157 25.322 54.4643 27.1847 53.9637 28.8534C53.7292 29.6472 53.1248 30.2966 52.2634 30.68C51.0502 31.2212 49.4987 31.1536 48.1186 30.4996C46.8107 29.8817 45.5388 29.2052 44.303 28.4746L47.866 24.9116C49.0342 23.7434 50.7886 23.5044 52.1957 24.1945H52.1913ZM48.8177 22.3769C48.0239 22.634 47.2797 23.076 46.6528 23.7074L42.8057 27.5545C37.0553 23.8517 32.1709 18.9131 28.5312 13.1222L32.3017 9.3517C32.9782 8.67519 33.4382 7.86339 33.6863 7.00647C37.1861 13.4379 42.4494 18.7823 48.8222 22.3769H48.8177ZM7.71261 32.8674C8.62816 32.6329 9.49406 32.1548 10.2112 31.4422L13.9005 27.753C19.6914 31.3926 24.63 36.277 28.3328 42.0274L24.5624 45.7979C23.8949 46.4654 23.4393 47.2592 23.1868 48.1025C19.5742 41.6802 14.1936 36.3808 7.71261 32.8719V32.8674Z" fill="#B18D56"/>
<path d="M5.89966 48.5309C5.89966 49.3969 6.60323 50.1005 7.46917 50.1005C8.33511 50.1005 9.03867 49.3969 9.03867 48.5309C9.03867 47.665 8.33511 46.9614 7.46917 46.9614C6.60323 46.9614 5.89966 47.665 5.89966 48.5309Z" fill="#332A29"/>
<path d="M49.3906 5.03992C48.5246 5.03992 47.821 5.74351 47.821 6.60945C47.821 7.47539 48.5246 8.17896 49.3906 8.17896C50.2565 8.17896 50.9601 7.47539 50.9601 6.60945C50.9601 5.74351 50.2565 5.03992 49.3906 5.03992Z" fill="#332A29"/>
</svg>
