<svg width="43" height="43" viewBox="0 0 43 43" fill="none" xmlns="http://www.w3.org/2000/svg">
<path d="M41.0444 18.1698C40.7367 17.8621 40.3945 17.6132 40.028 17.4196C39.786 17.2502 39.5302 17.0981 39.2536 16.9667C33.2625 14.1388 28.4052 9.28156 25.5739 3.28695C25.3491 2.81333 25.0588 2.38811 24.72 2.0182C24.5506 1.73818 24.3431 1.47197 24.1011 1.22997C22.4625 -0.40869 19.8005 -0.40869 18.1619 1.22997L1.229 18.1629C-0.409666 19.8015 -0.409666 22.4635 1.229 24.1021C1.35691 24.2301 1.48829 24.3441 1.62657 24.4513C2.06562 24.9284 2.60489 25.3363 3.22717 25.6336C9.21832 28.4615 14.0756 33.3222 16.9069 39.3134C17.1489 39.825 17.4635 40.2744 17.8334 40.6651C17.9371 40.7965 18.0478 40.9244 18.1688 41.0454C19.8074 42.6841 22.4694 42.6841 24.1081 41.0454L41.0409 24.1125C42.6796 22.4738 42.6796 19.8119 41.0409 18.1732L41.0444 18.1698ZM19.0987 36.0291L21.7676 33.3602C22.3276 34.3075 22.8497 35.2824 23.3233 36.285C23.8246 37.3463 23.8764 38.5321 23.4616 39.462C23.1677 40.1223 22.6699 40.5856 22.0615 40.7688C20.9448 41.1041 19.7141 40.7066 18.8464 39.8216C17.9855 38.6876 18.072 37.0628 19.1022 36.0291H19.0987ZM24.5056 35.7249C23.9663 34.5841 23.3717 33.4778 22.7218 32.4026L32.3463 22.7781C33.418 23.428 34.5278 24.0226 35.6686 24.5619C36.4914 24.9526 37.3626 25.1324 38.1992 25.1047L25.0484 38.2555C25.0761 37.4189 24.8963 36.5477 24.5056 35.7249ZM2.51157 23.4764C1.77866 22.626 1.47098 21.5093 1.7752 20.486C1.95497 19.8776 2.41823 19.3797 3.07854 19.0859C4.0085 18.671 5.19772 18.7229 6.25905 19.2242C7.14061 19.639 8.00142 20.0954 8.84495 20.5794L6.24525 23.1791C5.22887 24.1955 3.63858 24.2958 2.51157 23.4799V23.4764ZM6.8191 18.0384C5.7958 17.5544 4.70684 17.3919 3.69045 17.5544L17.4946 3.75021C17.3356 4.76314 17.4946 5.85558 17.9786 6.87542C18.4592 7.89527 18.9881 8.89091 19.5585 9.8589L9.79912 19.6183C8.83113 19.0479 7.83548 18.5189 6.81564 18.0384H6.8191ZM23.1781 6.24277L20.5196 8.90128C20.0356 8.0612 19.5827 7.19693 19.1644 6.31537C18.6631 5.25405 18.6113 4.06826 19.0261 3.13484C19.32 2.47453 19.8178 2.01128 20.4297 1.83151C21.536 1.49963 22.7563 1.88684 23.6241 2.75457C23.6379 2.7684 23.6517 2.78222 23.6621 2.79605C24.2706 3.89541 24.1081 5.30935 23.1781 6.23931V6.24277ZM20.2638 11.0067C21.7123 13.2676 23.3959 15.3626 25.2869 17.2536C27.0846 19.0513 29.0725 20.6658 31.2089 22.0659L22.0062 31.2687C19.1368 26.8851 15.3616 23.148 10.9469 20.3235L20.2638 11.0067ZM39.3504 18.5466C40.5189 19.4109 41.0928 20.8387 40.709 22.1178C40.5293 22.7262 40.066 23.224 39.4057 23.5179C38.4758 23.9328 37.2865 23.8809 36.2287 23.3796C35.2261 22.906 34.2512 22.3874 33.3039 21.8274L36.035 19.0963C36.9304 18.2009 38.2752 18.0177 39.3539 18.5466H39.3504ZM36.7645 17.1534C36.156 17.3504 35.5856 17.6892 35.1051 18.1732L32.1562 21.1221C27.7484 18.2839 24.0043 14.4983 21.2145 10.0594L24.1046 7.16927C24.6232 6.6507 24.9758 6.02844 25.1659 5.37159C27.8487 10.3014 31.8831 14.3981 36.7679 17.1534H36.7645ZM5.25653 25.1946C5.95832 25.0148 6.62205 24.6484 7.17173 24.1021L9.99966 21.2742C14.4386 24.0641 18.2241 27.8081 21.0624 32.216L18.1722 35.1061C17.6606 35.6177 17.3114 36.2262 17.1178 36.8727C14.3487 31.9498 10.2244 27.8877 5.25653 25.198V25.1946Z" fill="#281C1F"/>
<path d="M3.8667 37.2011C3.8667 37.8648 4.406 38.4042 5.06976 38.4042C5.73353 38.4042 6.27283 37.8648 6.27283 37.2011C6.27283 36.5373 5.73353 35.998 5.06976 35.998C4.406 35.998 3.8667 36.5373 3.8667 37.2011Z" fill="#281C1F"/>
<path d="M37.2036 3.86411C36.5398 3.86411 36.0005 4.40343 36.0005 5.06719C36.0005 5.73095 36.5398 6.27025 37.2036 6.27025C37.8673 6.27025 38.4066 5.73095 38.4066 5.06719C38.4066 4.40343 37.8673 3.86411 37.2036 3.86411Z" fill="#281C1F"/>
</svg>
